<!DOCTYPE svg PUBLIC "-//W3C//DTD SVG 1.1//EN" "http://www.w3.org/Graphics/SVG/1.1/DTD/svg11.dtd">
<!-- Uploaded to: SVG Repo, www.svgrepo.com, Transformed by: SVG Repo Mixer Tools -->
<svg fill="#b12c4d" height="800px" width="800px" version="1.1" id="Layer_1" xmlns="http://www.w3.org/2000/svg" xmlns:xlink="http://www.w3.org/1999/xlink" viewBox="0 0 512 512" xml:space="preserve">
<g id="SVGRepo_bgCarrier" stroke-width="0"/>
<g id="SVGRepo_tracerCarrier" stroke-linecap="round" stroke-linejoin="round"/>
<g id="SVGRepo_iconCarrier"> <g> <g> <path d="M510.659,401.41l-116.682-181.95h23.973c17.543,0,31.817-14.273,31.817-31.817c0-17.543-14.273-31.817-31.817-31.817 H346.41c-1.06,0-2.118,0.067-3.173,0.171c-9.081-5.232-18.911-7.974-29.101-7.974c-21.413,0-41.248,12.082-55.848,34.023 c-0.067,0.099-0.13,0.201-0.193,0.304l-28.853,47.626l-10.73-16.731c22.911-8.519,38.974-30.693,38.974-55.991 c0-32.925-26.786-59.71-59.71-59.71c-32.925,0-59.71,26.786-59.71,59.71c0,9.685,2.392,19.215,6.842,27.719 c-5.24,2.488-10.233,5.87-14.888,10.107H73.159c-17.543,0-31.817,14.273-31.817,31.817c0,17.543,14.273,31.817,31.817,31.817 h14.631l-11.576,19.107H31.817C14.273,277.821,0,292.095,0,309.638c0,17.543,14.273,31.817,31.817,31.817h5.844l-36.434,60.14 c-1.585,2.616-1.637,5.884-0.136,8.547c1.501,2.665,4.323,4.314,7.382,4.314h495.056c3.097,0,5.948-1.691,7.434-4.408 C512.447,407.33,512.332,404.018,510.659,401.41z M417.951,172.771L417.951,172.771c8.202,0,14.873,6.672,14.873,14.873 c0,8.201-6.671,14.873-14.873,14.873h-34.838l-13.05-20.35c-0.026-0.041-0.052-0.08-0.078-0.12 c-2.211-3.322-4.543-6.414-6.982-9.276H417.951z M272.491,191.288c11.345-16.974,26.13-26.319,41.645-26.319 c15.542,0,30.349,9.378,41.703,26.407l15.262,23.798c-15.052,14.115-35.012,22.116-55.775,22.116 c-21.248,0-41.572-8.345-56.735-23.056L272.491,191.288z M197.775,114.488c23.582,0,42.767,19.185,42.767,42.767 c0,19.929-13.906,37.155-32.949,41.633c-11.637-12.303-25.729-18.962-40.721-18.962c-1.74,0-3.463,0.12-5.177,0.297 c-4.384-6.841-6.687-14.69-6.687-22.969C155.008,133.673,174.193,114.488,197.775,114.488z M131.468,219.323 c9.686-14.48,22.254-22.453,35.405-22.453c13.179,0,25.77,8.004,35.464,22.539l13.083,20.401 c-12.881,11.893-29.859,18.623-47.509,18.623c-18.078,0-35.375-7.033-48.359-19.444L131.468,219.323z M73.159,241.771 c-8.201,0-14.873-6.672-14.873-14.873c0-8.201,6.672-14.873,14.873-14.873h42.919l-18.022,29.746H73.159z M31.817,324.511 c-8.201,0-14.873-6.672-14.873-14.873c0-8.201,6.672-14.873,14.873-14.873h71.54c8.201,0,14.873,6.672,14.873,14.873 s-6.672,14.873-14.873,14.873H31.817z M23.51,397.512l33.962-56.057h45.886c17.543,0,31.817-14.273,31.817-31.817 c0-17.543-14.273-31.817-31.817-31.817h-7.332l14.579-24.063c15.776,13.835,36.107,21.62,57.306,21.62 c20.915,0,41.065-7.612,56.763-21.134l91.874,143.268H23.51z M336.679,397.512l-97.251-151.65l10.184-16.809 c17.974,16.116,41.346,25.179,65.714,25.179c24.026,0,47.176-8.85,65.06-24.58l107.645,167.859H336.679z"/> </g> </g> </g>
</svg>