<?xml version="1.0" encoding="utf-8"?>
<!-- Generator: Adobe Illustrator 27.2.0, SVG Export Plug-In . SVG Version: 6.00 Build 0)  -->
<svg version="1.1" id="Layer_1" xmlns="http://www.w3.org/2000/svg" xmlns:xlink="http://www.w3.org/1999/xlink" x="0px" y="0px"
	 viewBox="0 0 800 800" style="enable-background:new 0 0 800 800;" xml:space="preserve">
<style type="text/css">
	.st0{fill:#B12C4D;}
</style>
<g id="SVGRepo_bgCarrier">
</g>
<g id="SVGRepo_tracerCarrier">
</g>
<g>
	<path class="st0" d="M797.9,627.2L615.6,342.9H653c27.4,0,49.7-22.3,49.7-49.7c0-27.4-22.3-49.7-49.7-49.7H541.3
		c-1.7,0-3.3,0.1-5,0.3c-14.2-8.2-29.5-12.5-45.5-12.5c-33.5,0-64.4,18.9-87.3,53.2c-0.1,0.2-0.2,0.3-0.3,0.5l-45.1,74.4l-16.8-26.1
		c35.8-13.3,60.9-48,60.9-87.5c0-51.4-41.9-93.3-93.3-93.3c-51.4,0-93.3,41.9-93.3,93.3c0,15.1,3.7,30,10.7,43.3
		c-8.2,3.9-16,9.2-23.3,15.8h-88.8c-27.4,0-49.7,22.3-49.7,49.7c0,27.4,22.3,49.7,49.7,49.7h22.9l-18.1,29.9H49.7
		C22.3,434.1,0,456.4,0,483.8c0,27.4,22.3,49.7,49.7,49.7h9.1l-56.9,94c-2.5,4.1-2.6,9.2-0.2,13.4c2.3,4.2,6.8,6.7,11.5,6.7h773.5
		c4.8,0,9.3-2.6,11.6-6.9C800.7,636.5,800.5,631.3,797.9,627.2z M653,270L653,270c12.8,0,23.2,10.4,23.2,23.2
		c0,12.8-10.4,23.2-23.2,23.2h-54.4l-20.4-31.8c0-0.1-0.1-0.1-0.1-0.2c-3.5-5.2-7.1-10-10.9-14.5H653z M425.8,298.9
		c17.7-26.5,40.8-41.1,65.1-41.1c24.3,0,47.4,14.7,65.2,41.3l23.8,37.2c-23.5,22.1-54.7,34.6-87.1,34.6c-33.2,0-65-13-88.6-36
		L425.8,298.9z M205.4,342.7c15.1-22.6,34.8-35.1,55.3-35.1c20.6,0,40.3,12.5,55.4,35.2l20.4,31.9c-20.1,18.6-46.7,29.1-74.2,29.1
		c-28.2,0-55.3-11-75.6-30.4L205.4,342.7z M114.3,377.8c-12.8,0-23.2-10.4-23.2-23.2c0-12.8,10.4-23.2,23.2-23.2h67.1l-28.2,46.5
		H114.3z M49.7,507c-12.8,0-23.2-10.4-23.2-23.2c0-12.8,10.4-23.2,23.2-23.2h111.8c12.8,0,23.2,10.4,23.2,23.2
		c0,12.8-10.4,23.2-23.2,23.2H49.7z"/>
	<g id="XMLID_00000052826194892262205430000012957816711982997395_">
		<g>
			<path class="st0" d="M375.9,245.7c0,31.1-21.7,58.1-51.5,65.1c-18.2-19.2-40.2-29.6-63.6-29.6c-2.7,0-5.4,0.2-8.1,0.5
				c-6.8-10.7-10.4-23-10.4-35.9c0-36.9,30-66.8,66.8-66.8C345.9,178.9,375.9,208.9,375.9,245.7z"/>
		</g>
		<g>
		</g>
	</g>
	<g id="XMLID_00000144301847041343905770000014720581601536966324_">
		<g>
			<path class="st0" d="M594.3,358.8l168.2,262.3H526.1l-152-236.9l15.9-26.3c28.1,25.2,64.6,39.3,102.7,39.3
				C530.2,397.2,566.4,383.4,594.3,358.8z"/>
		</g>
		<g>
		</g>
	</g>
	<g id="XMLID_00000021097488678564172040000007899700482563714692_">
		<g>
			<path class="st0" d="M351,397.3l143.6,223.8H36.7l53.1-87.6h71.7c27.4,0,49.7-22.3,49.7-49.7s-22.3-49.7-49.7-49.7H150l22.8-37.6
				c24.6,21.6,56.4,33.8,89.5,33.8C295,430.3,326.5,418.4,351,397.3z"/>
		</g>
		<g>
		</g>
	</g>
</g>
</svg>
